<?xml version="1.0" encoding="UTF-8"?>
<svg xmlns="http://www.w3.org/2000/svg" xmlns:xlink="http://www.w3.org/1999/xlink" width="px" height="px" viewBox="0 0 212 48" version="1.1">
<g id="surface1">
<path style=" stroke:none;fill-rule:nonzero;fill:rgb(0%,0%,0%);fill-opacity:1;" d="M 105.65625 12 C 97.386719 12 91.421875 17.398438 91.421875 25.5 C 91.421875 33.601562 98.132812 39 106.40625 39 C 111.402344 39 115.804688 37.019531 118.53125 33.683594 L 112.800781 30.367188 C 111.289062 32.023438 108.988281 32.992188 106.40625 32.992188 C 102.816406 32.992188 99.765625 31.117188 98.636719 28.117188 L 119.625 28.117188 C 119.792969 27.277344 119.886719 26.40625 119.886719 25.492188 C 119.886719 17.398438 113.925781 12 105.65625 12 Z M 98.570312 22.875 C 99.503906 19.882812 102.066406 18 105.648438 18 C 109.234375 18 111.796875 19.882812 112.726562 22.875 Z M 186.320312 12 C 178.050781 12 172.085938 17.398438 172.085938 25.5 C 172.085938 33.601562 178.800781 39 187.070312 39 C 192.066406 39 196.472656 37.019531 199.199219 33.683594 L 193.46875 30.367188 C 191.953125 32.023438 189.652344 32.992188 187.070312 32.992188 C 183.480469 32.992188 180.433594 31.117188 179.300781 28.117188 L 200.292969 28.117188 C 200.457031 27.277344 200.554688 26.40625 200.554688 25.492188 C 200.554688 17.398438 194.589844 12 186.320312 12 Z M 179.242188 22.875 C 180.175781 19.882812 182.738281 18 186.320312 18 C 189.910156 18 192.46875 19.882812 193.398438 22.875 Z M 150.003906 25.5 C 150.003906 30 152.941406 33 157.496094 33 C 160.582031 33 162.894531 31.597656 164.085938 29.308594 L 169.839844 32.632812 C 167.457031 36.609375 162.992188 39 157.496094 39 C 149.214844 39 143.261719 33.601562 143.261719 25.5 C 143.261719 17.398438 149.222656 12 157.496094 12 C 162.992188 12 167.449219 14.390625 169.839844 18.367188 L 164.085938 21.691406 C 162.894531 19.402344 160.582031 18 157.496094 18 C 152.945312 18 150.003906 21 150.003906 25.5 Z M 211.789062 3.75 L 211.789062 38.25 L 205.046875 38.25 L 205.046875 3.75 Z M 27.679688 0 L 55.359375 48 L 0 48 Z M 96.882812 3.75 L 76.125 39.75 L 55.367188 3.75 L 63.152344 3.75 L 76.125 26.25 L 89.101562 3.75 Z M 141.015625 12.75 L 141.015625 20.015625 C 140.265625 19.800781 139.46875 19.648438 138.617188 19.648438 C 134.265625 19.648438 131.125 22.648438 131.125 27.148438 L 131.125 38.25 L 124.382812 38.25 L 124.382812 12.75 L 131.125 12.75 L 131.125 19.648438 C 131.125 15.839844 135.550781 12.75 141.015625 12.75 Z M 141.015625 12.75 "/>
</g>
</svg>
